<svg id="Layer_1" height="512" viewBox="0 0 64 64" width="512" xmlns="http://www.w3.org/2000/svg" data-name="Layer 1"><g fill="#f5b353"><path d="m18.29 51.5a1.372 1.372 0 0 1 1.582-2.241c13.793 9.711 33.217-.093 33.217-17.259a21.089 21.089 0 1 0 -38.347 12.125 1.371 1.371 0 0 1 -2.242 1.575 23.833 23.833 0 1 1 43.332-13.7c0 19.351-21.902 30.514-37.542 19.5z"/><path d="m32 64a32 32 0 1 1 32-32 32.036 32.036 0 0 1 -32 32zm0-61.257a29.257 29.257 0 1 0 29.257 29.257 29.291 29.291 0 0 0 -29.257-29.257z"/><path d="m35.063 47.665a1.374 1.374 0 0 1 -1.372-1.372v-2.042a.67.67 0 0 0 -.67-.67h-4.084a.67.67 0 0 0 -.67.67v2.042a1.372 1.372 0 1 1 -2.743 0v-2.042a.671.671 0 0 0 -.671-.67h-2.041a1.372 1.372 0 1 1 0-2.743h2.041a.671.671 0 0 0 .671-.67v-16.336a.671.671 0 0 0 -.671-.67h-2.041a1.372 1.372 0 1 1 0-2.743h2.041a.671.671 0 0 0 .671-.67v-2.042a1.372 1.372 0 1 1 2.743 0v2.042a.67.67 0 0 0 .67.67h4.084a.67.67 0 0 0 .67-.67v-2.042a1.372 1.372 0 0 1 2.744 0v2.758a.672.672 0 0 0 .38.605 6.414 6.414 0 0 1 2.475 9.587.669.669 0 0 0 .19.96 6.445 6.445 0 0 1 -2.472 11.868.669.669 0 0 0 -.573.663v2.145a1.374 1.374 0 0 1 -1.372 1.372zm-6.126-14.293a.67.67 0 0 0 -.67.67v6.126a.67.67 0 0 0 .67.67h7.147a3.733 3.733 0 1 0 0-7.466zm0-10.21a.67.67 0 0 0 -.67.67v6.126a.67.67 0 0 0 .67.67h5.105a3.733 3.733 0 0 0 0-7.466z"/></g></svg>